<svg width="147" height="147" viewBox="0 0 147 147" fill="none" xmlns="http://www.w3.org/2000/svg">
  <path fill="#00524E" d="M73.5 0A73.5 73.5 0 0 1 147 73.5 73.5 73.5 0 0 1 73.5 147 73.5 73.5 0 0 1 0 73.5 73.5 73.5 0 0 1 73.5 0z" />
  <path d="M71.855 42.912c2.89 0 5.202.693 6.821 1.387V33.432c-1.966-.925-5.434-1.85-9.249-1.85-10.173 0-17.688 7.63-17.688 18.498v5.78h-9.133v10.52h9.133v49.134h12.023V66.38h24.161V55.86H63.762v-5.549c0-5.087 3.816-7.399 8.093-7.399ZM99.946 55.86H87.923v59.654h12.023V55.86Z" fill="#DEDB7B" />
</svg>